<svg width="56" height="55" viewBox="0 0 56 55" fill="none" xmlns="http://www.w3.org/2000/svg">
<path d="M40.4039 12.5124C39.86 12.5124 39.3283 12.6737 38.8761 12.9759C38.4239 13.278 38.0714 13.7075 37.8632 14.21C37.6551 14.7125 37.6006 15.2655 37.7068 15.7989C37.8129 16.3324 38.0748 16.8224 38.4594 17.207C38.844 17.5916 39.334 17.8535 39.8674 17.9596C40.4009 18.0657 40.9538 18.0112 41.4563 17.8031C41.9588 17.5949 42.3883 17.2425 42.6905 16.7902C42.9926 16.338 43.1539 15.8063 43.1539 15.2624C43.1539 14.5331 42.8642 13.8336 42.3485 13.3179C41.8327 12.8021 41.1333 12.5124 40.4039 12.5124ZM50.9456 18.0582C50.901 16.1568 50.5449 14.2756 49.8914 12.4895C49.3087 10.9613 48.4018 9.57743 47.2331 8.43325C46.0983 7.2586 44.7112 6.35741 43.1768 5.79783C41.3954 5.12445 39.5121 4.76019 37.6081 4.72075C35.1789 4.58325 34.3997 4.58325 28.1664 4.58325C21.9331 4.58325 21.1539 4.58325 18.7248 4.72075C16.8207 4.76019 14.9374 5.12445 13.156 5.79783C11.6244 6.36307 10.2386 7.26349 9.09975 8.43325C7.92511 9.56803 7.02391 10.9551 6.46434 12.4895C5.79096 14.2709 5.4267 16.1542 5.38726 18.0582C5.24976 20.4874 5.24976 21.2666 5.24976 27.4999C5.24976 33.7332 5.24976 34.5124 5.38726 36.9416C5.4267 38.8456 5.79096 40.7289 6.46434 42.5103C7.02391 44.0447 7.92511 45.4318 9.09975 46.5666C10.2386 47.7363 11.6244 48.6368 13.156 49.202C14.9374 49.8754 16.8207 50.2396 18.7248 50.2791C21.1539 50.4166 21.9331 50.4166 28.1664 50.4166C34.3997 50.4166 35.1789 50.4166 37.6081 50.2791C39.5121 50.2396 41.3954 49.8754 43.1768 49.202C44.7112 48.6424 46.0983 47.7412 47.2331 46.5666C48.407 45.4267 49.3147 44.0416 49.8914 42.5103C50.5449 40.7242 50.901 38.843 50.9456 36.9416C50.9456 34.5124 51.0831 33.7332 51.0831 27.4999C51.0831 21.2666 51.0831 20.4874 50.9456 18.0582ZM46.8206 36.6666C46.8039 38.1213 46.5404 39.5626 46.0414 40.9291C45.6755 41.9264 45.0878 42.8275 44.3227 43.5645C43.5794 44.3219 42.6801 44.9084 41.6872 45.2832C40.3207 45.7823 38.8794 46.0457 37.4247 46.0624C35.1331 46.177 34.2852 46.1999 28.2581 46.1999C22.231 46.1999 21.3831 46.1999 19.0914 46.0624C17.581 46.0907 16.0769 45.8581 14.6456 45.3749C13.6963 44.9809 12.8383 44.3959 12.1248 43.6562C11.3641 42.92 10.7838 42.0181 10.4289 41.0207C9.86943 39.6346 9.5591 38.1606 9.51225 36.6666C9.51225 34.3749 9.37475 33.527 9.37475 27.4999C9.37475 21.4728 9.37475 20.6249 9.51225 18.3332C9.52253 16.8461 9.79402 15.3723 10.3143 13.9791C10.7178 13.0118 11.337 12.1496 12.1248 11.4583C12.821 10.6703 13.6815 10.0445 14.6456 9.62492C16.0425 9.12085 17.5147 8.85739 18.9998 8.84575C21.2914 8.84575 22.1393 8.70825 28.1664 8.70825C34.1935 8.70825 35.0414 8.70825 37.3331 8.84575C38.7878 8.86244 40.2291 9.1259 41.5956 9.62492C42.637 10.0114 43.5717 10.6398 44.3227 11.4583C45.0736 12.1622 45.6604 13.0228 46.0414 13.9791C46.5507 15.3746 46.8144 16.8477 46.8206 18.3332C46.9352 20.6249 46.9581 21.4728 46.9581 27.4999C46.9581 33.527 46.9352 34.3749 46.8206 36.6666ZM28.1664 15.7437C25.8422 15.7482 23.5715 16.4415 21.6413 17.7361C19.711 19.0306 18.2077 20.8683 17.3214 23.0168C16.4351 25.1654 16.2056 27.5285 16.6618 29.8075C17.118 32.0864 18.2395 34.1791 19.8845 35.8209C21.5296 37.4628 23.6244 38.5802 25.9042 39.0319C28.1841 39.4837 30.5467 39.2495 32.6935 38.3591C34.8404 37.4686 36.6751 35.9618 37.9659 34.0289C39.2567 32.0961 39.9456 29.8241 39.9456 27.4999C39.9486 25.9533 39.6458 24.4213 39.0547 22.9921C38.4635 21.5629 37.5956 20.2647 36.5009 19.1721C35.4062 18.0795 34.1063 17.2142 32.676 16.6258C31.2456 16.0374 29.713 15.7376 28.1664 15.7437ZM28.1664 35.1312C26.6571 35.1312 25.1817 34.6836 23.9267 33.8451C22.6718 33.0065 21.6937 31.8147 21.1161 30.4203C20.5385 29.0258 20.3873 27.4914 20.6818 26.0111C20.9763 24.5308 21.7031 23.1711 22.7703 22.1038C23.8376 21.0366 25.1973 20.3097 26.6776 20.0153C28.158 19.7208 29.6923 19.872 31.0868 20.4496C32.4812 21.0271 33.673 22.0053 34.5116 23.2602C35.3501 24.5152 35.7977 25.9906 35.7977 27.4999C35.7977 28.5021 35.6003 29.4944 35.2168 30.4203C34.8333 31.3461 34.2712 32.1874 33.5625 32.896C32.8539 33.6046 32.0126 34.1668 31.0868 34.5503C30.1609 34.9338 29.1686 35.1312 28.1664 35.1312Z" fill="#D39A52"/>
</svg>
